/* XPM */
static char *e9710c6a917e412f8c675380e0e57b61[] = {
/* columns rows colors chars-per-pixel */
"32 32 163 2 ",
"   c black",
".  c #010101",
"X  c #020202",
"o  c #030203",
"O  c gray1",
"+  c #030304",
"@  c #040404",
"#  c gray2",
"$  c #050506",
"%  c #060606",
"&  c #070707",
"*  c gray3",
"=  c #090909",
"-  c #0A090A",
";  c gray4",
":  c #0A0A0B",
">  c #0B0A0B",
",  c #0C0C0C",
"<  c #131313",
"1  c #131314",
"2  c gray8",
"3  c #151515",
"4  c #161616",
"5  c gray9",
"6  c #191819",
"7  c gray10",
"8  c gray12",
"9  c #202020",
"0  c gray13",
"q  c #222222",
"w  c #232323",
"e  c gray14",
"r  c #252525",
"t  c #252526",
"y  c gray16",
"u  c #29292A",
"i  c #2A2A2B",
"p  c gray17",
"a  c #2D2C2D",
"s  c #2D2D2E",
"d  c gray18",
"f  c #313132",
"g  c #323233",
"h  c #353536",
"j  c #363536",
"k  c #393939",
"l  c #39393A",
"z  c #3A3A3A",
"x  c gray23",
"c  c #3B3B3C",
"v  c #3C3C3C",
"b  c #3D3D3E",
"n  c #3E3D3E",
"m  c #434243",
"M  c #434343",
"N  c #444444",
"B  c gray27",
"V  c #464646",
"C  c #484848",
"Z  c #494949",
"A  c gray29",
"S  c #4B4B4B",
"D  c #4C4C4C",
"F  c gray31",
"G  c #505050",
"H  c #535353",
"J  c gray34",
"K  c #59595A",
"L  c #5B5B5B",
"P  c #5C5C5D",
"I  c #5D5D5E",
"U  c gray38",
"Y  c #626162",
"T  c #686868",
"R  c #6A6A6B",
"E  c gray43",
"W  c #6F6F6F",
"Q  c #706F70",
"!  c gray44",
"~  c #717171",
"^  c #727272",
"/  c gray45",
"(  c #757475",
")  c #787879",
"_  c #828182",
"`  c #828283",
"'  c #848484",
"]  c #848485",
"[  c #868687",
"{  c #8D8C8D",
"}  c #8D8D8E",
"|  c #909090",
" . c #909091",
".. c #919091",
"X. c #989899",
"o. c #9B9B9B",
"O. c #9E9E9F",
"+. c #9F9F9F",
"@. c #A0A0A0",
"#. c gray64",
"$. c #A4A4A5",
"%. c #A6A5A6",
"&. c #A7A7A7",
"*. c #A8A7A8",
"=. c #ABABAC",
"-. c #ACACAC",
";. c gray69",
":. c #B0B0B1",
">. c #B2B2B3",
",. c #B4B4B4",
"<. c gray71",
"1. c gray72",
"2. c #B8B8B9",
"3. c gray74",
"4. c #BEBDBE",
"5. c gray",
"6. c #C0BFC0",
"7. c #C1C0C1",
"8. c #C1C1C1",
"9. c #C1C1C2",
"0. c #C2C2C3",
"q. c #C3C3C4",
"w. c gray78",
"e. c #CACACA",
"r. c gray80",
"t. c #CECECE",
"y. c gray81",
"u. c #D2D2D3",
"i. c gray83",
"p. c #D7D6D7",
"a. c #D8D8D9",
"s. c gray85",
"d. c #D9D9DA",
"f. c #DDDDDD",
"g. c gray87",
"h. c #DFDFDF",
"j. c #E3E3E4",
"k. c gray90",
"l. c gray91",
"z. c #EAEAEA",
"x. c gray92",
"c. c #EBEBEC",
"v. c #ECEBEC",
"b. c #ECECED",
"n. c gray93",
"m. c #EEEDEE",
"M. c #EFEFEF",
"N. c #F1F1F1",
"B. c #F2F1F2",
"V. c #F3F3F3",
"C. c #F4F4F4",
"Z. c gray96",
"A. c #F6F6F6",
"S. c gray97",
"D. c #F8F8F8",
"F. c #FAF9FA",
"G. c gray98",
"H. c #FBFBFB",
"J. c gray99",
"K. c #FDFDFD",
"L. c #FDFDFE",
"P. c #FEFEFE",
"I. c white",
/* pixels */
"                            # ) F                               ",
"                        #   I I.z.4                             ",
"                        #   ~ I.C.q                             ",
"                        *   W I.C.e   #                         ",
"                    #   #   ~ I.C.q     #                       ",
"                  O   4 U O.g.I.I.0.] c #   #                   ",
"                  * _ v.I.I.I.I.I.I.I.I.e.M                     ",
"            #   u p.I.I.I.j.g.I.F.s.C.I.I.I.}   #               ",
"          #   f n.I.I.u.I   W I.C.q q | C.I.I.@.                ",
"            4 g.I.I.| + #   ~ I.C.q     d s.I.I.]   #           ",
"            O.I.I.]     &   W I.C.q   *   6 s.I.I.z             ",
"          f F.I.1.  #   #   W I.C.q     #   z F.I.>.            ",
"  #   *   } I.I.z   #   #   j F.q.+     # *   @.I.C.u   #   #   ",
"          y.I.4.              4 :             z I.I.T   #       ",
"# z S M J N.I.=.x S S S 4             d F B B H n.I.;.z S F e   ",
"( I.I.I.I.I.I.I.I.I.F.I.q.    # #   d I.I.I.I.I.I.I.F.I.I.I.N.e ",
"( I.I.I.I.I.I.I.I.I.J.I.q.          f I.I.I.I.I.I.I.I.I.I.I.n.q ",
"  z S M L N.I.$.z S C S 4   @         u D S B G z.I.,.v S S e   ",
"          p.I.,.              1 *             f I.I.~   #       ",
"  # # #   X.I.F.d   # O #   j F.q.O   O # *   | I.F.f   # + #   ",
"      #   n I.I.$.  #   #   W I.C.q     #   u V.I.0.            ",
"            >.I.I.R   # *   W I.C.q   #   * q.I.I.S   #         ",
"        @   w z.I.I.~   #   ~ I.C.q     6 0.I.I.o.              ",
"              S F.I.I.1.v   W I.C.q * W z.I.I.4.#               ",
"                B n.I.I.I.y.y.I.F.6.z.I.I.I.-.*                 ",
"              #   6 $.F.I.I.I.I.I.I.I.I.j.U   #                 ",
"                #     u _ 4.n.I.I.a.*.L ,   #                   ",
"                  O         / I.C.q   #                         ",
"                      # *   W I.C.q   #                         ",
"                        #   ~ I.C.q                             ",
"                            P I.x.5                             ",
"                            # ) H                               "
};
