/* XPM */
static char *aa7fd0a2bf814214df615cd507697908[] = {
/* columns rows colors chars-per-pixel */
"64 64 256 2 ",
"   c #000000",
".  c #B7320B",
"X  c #A93F31",
"o  c #DC1C02",
"O  c #DA1B08",
"+  c #DB1B12",
"@  c #CD1F06",
"#  c #F30C09",
"$  c #E41B02",
"%  c #E8180A",
"&  c #F91606",
"*  c #E61614",
"=  c #EC141C",
"-  c #E91816",
";  c #F51718",
":  c #F10F19",
">  c #C92A05",
",  c #D42B02",
"<  c #D82405",
"1  c #C93804",
"2  c #D83707",
"3  c #DB2615",
"4  c #C83615",
"5  c #D63715",
"6  c #CD2212",
"7  c #E52505",
"8  c #E23D02",
"9  c #E63909",
"0  c #FD320B",
"q  c #E62717",
"w  c #F4271A",
"e  c #EA3414",
"r  c #E73517",
"t  c #F6381A",
"y  c #F12D03",
"u  c #D71B21",
"i  c #EC0B21",
"p  c #E51A26",
"a  c #F61727",
"s  c #F3102C",
"d  c #C73522",
"f  c #F92A26",
"g  c #ED3828",
"h  c #FB3726",
"j  c #FD3937",
"k  c #E82B2A",
"l  c #BA4716",
"z  c #B64E0B",
"x  c #9C4B2F",
"c  c #B75631",
"v  c #B34D28",
"b  c #B56A39",
"n  c #C44905",
"m  c #D54809",
"M  c #CC5504",
"N  c #DB5A05",
"B  c #D94617",
"V  c #D05515",
"C  c #E64905",
"Z  c #F15B05",
"A  c #E74418",
"S  c #F8481B",
"D  c #E6561A",
"F  c #FA5A19",
"G  c #EA4C09",
"H  c #D56C0E",
"J  c #EA6809",
"K  c #F3660C",
"L  c #E67708",
"P  c #EB6A17",
"I  c #FD631D",
"U  c #F86618",
"Y  c #E97518",
"T  c #FD731D",
"R  c #FA7713",
"E  c #F5740E",
"W  c #C65529",
"Q  c #D45D29",
"!  c #C75C37",
"~  c #D84826",
"^  c #EA4827",
"/  c #FB4828",
"(  c #E85627",
")  c #FD5A24",
"_  c #FD5E2C",
"`  c #F65727",
"'  c #FF5736",
"]  c #F04E35",
"[  c #DA6A33",
"{  c #CD6E2D",
"}  c #E86625",
"|  c #FE622C",
" . c #F96827",
".. c #FC7726",
"X. c #FE6636",
"o. c #EB7534",
"O. c #FF7839",
"+. c #E76B34",
"@. c #B17146",
"#. c #FA514B",
"$. c #DB754C",
"%. c #D76D4E",
"&. c #E66A4B",
"*. c #F86948",
"=. c #E47A56",
"-. c #FD795A",
";. c #F5714F",
":. c #EB7967",
">. c #D85F4A",
",. c #D28413",
"<. c #E58708",
"1. c #F69B0B",
"2. c #F9871A",
"3. c #EC9718",
"4. c #FD9C13",
"5. c #FA951A",
"6. c #EE920F",
"7. c #DAAB17",
"8. c #FDA50A",
"9. c #F7A70B",
"0. c #E9AA17",
"q. c #FCA315",
"w. c #FDAB13",
"e. c #F4A41B",
"r. c #FEA41B",
"t. c #FCAA1B",
"y. c #F4AB16",
"u. c #E7B31A",
"i. c #F7B31A",
"p. c #FE8827",
"a. c #FF9D25",
"s. c #FC9628",
"d. c #FF8735",
"f. c #FF913C",
"g. c #DDB833",
"h. c #E7AE27",
"j. c #FEA622",
"k. c #FEA32B",
"l. c #FBA825",
"z. c #ECB626",
"x. c #F8B52A",
"c. c #E7AB36",
"v. c #F9B93A",
"b. c #F9AC37",
"n. c #CB842A",
"m. c #FECB36",
"M. c #F3C932",
"N. c #DDC237",
"B. c #B48450",
"V. c #BA9569",
"C. c #C3874F",
"Z. c #D38C56",
"A. c #FA8749",
"S. c #F99746",
"D. c #EA8857",
"F. c #FD8859",
"G. c #F79458",
"H. c #E99450",
"J. c #F8BA42",
"K. c #FEA85B",
"L. c #EABB4F",
"P. c #D58E6E",
"I. c #F3876B",
"U. c #E99868",
"Y. c #FA9867",
"T. c #EB8975",
"R. c #E79878",
"E. c #F38E6E",
"W. c #DCA479",
"Q. c #C1A974",
"!. c #E8A776",
"~. c #F8A473",
"^. c #FEB56D",
"/. c #C7A657",
"(. c #DDCD52",
"). c #EAC549",
"_. c #FDD649",
"`. c #F8C954",
"'. c #FBD655",
"]. c #EDCE52",
"[. c #FBE55C",
"{. c #FEE44F",
"}. c #F9D963",
"|. c #FDDA75",
" X c #F6D066",
".X c #FEEB6C",
"XX c #FAE566",
"oX c #FBF46E",
"OX c #FEEE7D",
"+X c #FDEB74",
"@X c #FEF474",
"#X c #FEF27C",
"$X c #FAF977",
"%X c #EDEB6F",
"&X c #D99B88",
"*X c #D19D92",
"=X c #E59982",
"-X c #E58D81",
";X c #D8A78B",
":X c #D3AD9B",
">X c #D6A797",
",X c #D3B399",
"<X c #D3B495",
"1X c #E9AE8F",
"2X c #CEADA4",
"3X c #D0ACA4",
"4X c #CEB2A3",
"5X c #CDB5AA",
"6X c #CCBAAC",
"7X c #CEB8A2",
"8X c #D5B6A3",
"9X c #CCBCB4",
"0X c #CDBAB6",
"qX c #E7BFA5",
"wX c #D7C29C",
"eX c #F9CA8E",
"rX c #FEEB8D",
"tX c #FEE686",
"yX c #FFF383",
"uX c #FAF48D",
"iX c #F7F687",
"pX c #FCF492",
"aX c #F6EF8A",
"sX c #CFC2A1",
"dX c #CDC2B4",
"fX c #CDC2BA",
"gX c #CCCABE",
"hX c #D7CBB3",
"jX c #FFD8A4",
"kX c #F3D2AE",
"lX c #FEE5BC",
"zX c #FCF0BE",
"xX c #CFC5C2",
"cX c #CFCBC3",
"vX c #D1C5C1",
"bX c #D1CBC5",
"nX c #D4CDCB",
"mX c #D5D2CD",
"MX c #D6D4D2",
"NX c #DBDAD6",
"BX c #DDDBDA",
"VX c #DAD7D4",
"CX c #E1DDDD",
"ZX c #F7DACA",
"AX c #E1E1DE",
"SX c #FBECC8",
"DX c #E4E4E3",
"FX c #EAE9E7",
"GX c #EBEBEA",
"HX c #E7E8E5",
"JX c #EFF1EF",
"KX c #EFF1F1",
"LX c #F5F4F4",
"PX c #F9F8F8",
"IX c #F1EEEF",
"UX c #DEEDC6",
/* pixels */
"                                                                                                                                ",
"                                                                                                                                ",
"                                                                                                                                ",
"                                        HX                                                                                      ",
"                                      NX9XPX                      AX:X9X                                                        ",
"                                      dX8X                          5X:XNX                                                      ",
"                                    KX,X8X                          LX4X*XLX                                                    ",
"                                    KX@.7X              NX            6XX VX                                                    ",
"                                    GXB.c nX            vX:XfXGX      nX< I.                                                    ",
"                                  GXIX1Xv R.              3X/.gX      nX>.&.cX                                                  ",
"                                  DXP.*.` &.nX            BXI.D.MX      :.~ D.F.mX                                              ",
"                                    =X5 B B dX              E.Q 5X      T.=.+.~ <XIX                                            ",
"                                    FXW.` ^ 0X              0XQ =.I.      nXP.W . 3X                                            ",
"                                      4X&.*.NX              NX%.4 -.FX      fXR.-X0X                                            ",
"                                        5XdX        6XnX    JXH., 2 U.AX                                                        ",
"                                        nX        CX;XDX    LX;X2 > [ vX                                                        ",
"                          CX;XNX                  BXD.gX      5Xr @ A !.                                                        ",
"                          DXx <X                  AX%.4X      5Xg < 2 F.                              LX                        ",
"                          vXq #.LX      FX          S.S.gXLX  dXf O , ;.          nXnX              VXfX                        ",
"                          0Xr k NX    NXhX          H.M C.kXlX,Xf 7 , D.GX      GX8XbX              9XdX                        ",
"                          >XA &.BX  MX<X1XCX        G.2 k j _ _ a a % h nX  GXcXY.} :X            HX:.T.                        ",
"                        IX*X5 ;.    NX;Xv 2X        G.2 p p , 8 = : & / qXlXkX/.V M 4X            vXd :.                        ",
"                        PX&X. I.      9Xz D.DX    DX*.% s f ; * : a : w #.j t w o ( bX          CXP.A &.DX                      ",
"                          -X@ R.      DXG.Q NX    0Xg $ : j j % : = : % u + # % r -.HX          cXv ' r nX                      ",
"                          NX*X>X        ;X[ ~.,XU.' : ; > ( ' 3 a i u p ; : > l >XAX            ;X1 X.e &X                      ",
"                            5X&XVX      <XQ l [ ^ 7 # : 5 X.' k i i p u ; w g Y.nX              8X$./ 9 &X                      ",
"                                        ;XA 6 + # # ; - N p.| 9 7 = ; ; 3 B <XFX          GX      :XX *XnX                      ",
"                                        ~.5 6 * ; ; ; q E s.) e f h = - w -.NX          DXgX      HX0X0X                        ",
"                          BXvX          9X;Xz 1 a : * g 4.4.o.B 9 ) 9 @ ( 8X          FX!.U.HX                                  ",
"                          NX:X4XVXPX      jXK.( : : w *.r.1.+.D @ F X.A } 9X          xX{ U.FX                                  ",
"              BXLX          >X! M Z.A.4X    SXZ.q q D s.w.9.R t O g d. .N Y.DXPXBX0XF.&.. S.        gX5X                        ",
"              MX5XnXBX        1XA.D.. U.ZX  SX!.g r ..s.9.9.T / O q | S...N V.Q.Z.! 2 . m G.        6X,X                        ",
"              7X7 7 3X            dXV B ~.jX1X*.B F 3.e.9.w.p.G * p G p.f.M & & s s p + V <X      ,XU.~.PX                      ",
"              >XS y ;X            CXF.1 z [ +.B D ..b.w.9.w.p.F = = C ..S...& # s s p k H.sX    VX;Xc K.        GX              ",
"              *XC  .=.&X            -.q w w % w K p.m.z.y.w.4.R e o 9 ..l.4.G - i a + g hX    GX-.e ! dX    CX3X                ",
"              &XG U . R.            -.q % % % j T k._.u.y.r.r.p./ 7 , T j.j./ - s i k ;.lX  ZX8X9 e W.AX    9X0X                ",
"                2X2X9X              0XW % $ e / 6.x.'.v.r.q.w.9.R m 1  .r.r._ < $ $ } ^.SXeX*.e l :XKX    bX*X0X                ",
"                  FX        GX      IX=Xh $ t ' 5.b.}.J.r.r.0.i.2...D O.q.q.X.7 $ S F.^.R.@.< e R.xX    9X2X3XPX                ",
"                          DXW.6X      UXF.> r X.3.M..X].7.u.r.t.r.6.J p.t.l._ < z o.O.X.0 % V :XPX      mXnX                    ",
"                  LXBX      !.W.>XlX    ~.A A O.0.M.#XXXu.y.t.j.w.6.Y d.q.w.S 7 o.+.A 7 0 0 G.mX                                ",
"                  MX4XGX    mX;XB F.jXzXY.m m O.e.M.XX@XM.7.).v.4.r.<.9.t.3.] / h $ C ` D ;.JX                                  ",
"                  HX:XNX      4XD.m B.P.+.n m O.e.u.XX@X[.`.'.v.4.j.6.1.i.3.~ 3 7 / *.( B A.                                    ",
"                    !.;X        Y.5 8 9 m 2 m Y r.h.%XyXuXtX{.u.t.w.9.9.s.I % 7 N s.O.^ 4 E.PX        dXCX                      ",
"                    ,XW.VX      G.C S A.p...T P 5.0.(.OXyXrX_.u.t.y.9.w.2.C y / p.p. .A > &.SX  ZXkXkXsXCX                      ",
"                    wXo.;.-X3X!.#.+ e  .a.k.a.5.4.4.J.yXaXuXm.0.h.x.y.4...C H 6.r.4.U t $ h ~.Y.-.j ! <X                        ",
"                    sXn.+ 5 W . q * < 8 <.a.k.a.4.t.c.|.uXaXM.0.z.m.w.w.T Z Y s.4.L I e % t &.~ 6 3 R.dX                        ",
"                    6X] i = o t - ; q + G ..a.x.u.i.0.x.+X$X`.c.`.`.8.8.5.L <.l.s.P X./ o $ f p , D.VX                          ",
"                    <XQ - a 7 ' j + - - 7 K 5.l.m.m.y.0.%X#X`.c.XX`.8.8.k.j.0.l.s.P | / 7 $ p p A ~.                            ",
"                    4XQ i i 3 F p.N q O % g T a.g.oX@X(.(.XXXXN.XX`.7.M.'.v.8.1.s.H ` _ S 9 f * ( 7X                            ",
"                    6X] = p 3 ` ..../ g q w P 3.g.[.#X#X}.}.[.[..XN.7.m.XXv.8.w.3.Y | ) ) S j - ^ ;X                            ",
"                    CX>.; % $ / L s.p.E Z Z K 2.c.'.#XpXrXtX@X#X#X(.(.XX#X`.1.j.2.P I U U  .j O B ~.                            ",
"                    IXR.w ; % t L 2.b.2.T T J L c.[.OXyXrXpX#X%XyX%X[.@XyX Xq.r.s.J I I U I / + 5 U.                            ",
"                      xXA $ & ; '  .k.r.w.w.4.5.v.XX$XOXrXrXaXiXrXtX.X@XoX}.0.t.s.P } _ I F / 7 2 R.                            ",
"                      BX*.$ & ; ^ F <.l.9.8.r.a.x..X#X#XrXrXiXuXrXtX@X@XoXXX0.w.p.P  .) F  ./ < B =X                            ",
"                        ,XW - = g )  .s.q.q.4.h.).+X$X%XoX$X#XyXOX#X@X@XyX}.0.j.2.K F F F ) t 3 %.xX                            ",
"                        fXI.; - $ A U L q.w.q.l.L.+X$XiX$XoX#X#XyX#XoXoXiX].h.j.R K K F I / 2 k R.DX                            ",
"                          BX=Xd * * t F R 5.y.u.x.'.@X$XoX$XrXrXaXiX#X@XXXJ.h.5.P _ _ ' A > B T.DX                              ",
"                            xXT.f % $ G J <.0.0.h.).[..X$XyXpXuXaXiX#XXX`.h.<.<.} ' S 2 , &.F.6X                                ",
"                              BXqX>.4 6 < e ` X...O.K.`.|.tX|.|. X XK.A.X._ F C 5 d 4 v >XvX                                    ",
"                                JXvX&X-.^ r , , C C N H n.{ n.,.H H M n 9 8 2 2 #.*.T.5XCX                                      ",
"                                        CXvXdX8X@.! c c c c c c b b @.C.Z.Z.Q.xXPX                                              ",
"                                              LXbXfXdXsXfXdXdXfXgXbXmXBXCXDXGXKX                                                ",
"                                                                                                                                ",
"                                                                                                                                "
};
