/* XPM */
static char *_8162a0b851e4fc4b77e2db857764719[] = {
/* columns rows colors chars-per-pixel */
"64 64 45 1 ",
"  c black",
". c #580000",
"X c #044000",
"o c #046400",
"O c #585400",
"+ c #706C00",
"@ c #5C4020",
"# c #007070",
"$ c #484848",
"% c gray33",
"& c #880000",
"* c #A40000",
"= c #C80000",
"- c #FC2020",
"; c #BD5454",
": c #A86840",
"> c #52BA50",
", c #66B966",
"< c #6CB96A",
"1 c #9C9C00",
"2 c #C0BA2E",
"3 c #CCC400",
"4 c #CBC111",
"5 c #E4D800",
"6 c #B9B666",
"7 c #B9B96A",
"8 c #FCA85C",
"9 c #FCF440",
"0 c #FCFC7C",
"q c #000088",
"w c #6161BA",
"e c #6A6AB9",
"r c #0000E0",
"t c #84BC82",
"y c #FCB080",
"u c #C8BFB4",
"i c #C8BABA",
"p c #B6C9B5",
"a c #C6C5AE",
"s c #CBC9AF",
"d c #CACABE",
"f c #D3D8D2",
"g c #DDDDE0",
"h c #E2E2E1",
"j c #E6E6E4",
/* pixels */
"                                                                ",
"                                                                ",
"                                                                ",
"                                                                ",
"                                                                ",
"                                                                ",
"                                                                ",
"                                                                ",
"                                                                ",
"                                                                ",
"                                                                ",
"                                                                ",
"                                                                ",
"                                                                ",
"                                                                ",
"                                                                ",
"                                                                ",
"                                                                ",
"                                                                ",
"                                                                ",
"                                                                ",
"                                                                ",
"                                                                ",
"                                                                ",
"                                                                ",
"                                                                ",
"                                                                ",
"                                                                ",
"                                                                ",
"                                                                ",
"                                                                ",
"                                                                ",
"                                                                ",
"                                                                ",
"                                                                ",
"                                                                ",
"                                                                ",
"                                                                ",
"                                                                ",
"                                                                ",
"                                                                ",
"                                                                ",
"                                                                ",
"                                                                ",
"                                                                ",
"                                                                ",
"                                                                ",
"                                                                ",
"                                                                ",
"                                                                ",
"                            ,,                                  ",
"                      2266  >>t dd                              ",
"                    2i;032jp<of gwa47                           ",
"                    2i350:89oXuerq@yh7                          ",
"                     2a4&99999999999967                         ",
"                       4=31..........17                         ",
"                       4=3..**********7                         ",
"                       4=3.*5*#51#*5**7                         ",
"                       4=3.*111OO111.*7                         ",
"                    47 4-3.*1.#11#.1.*7  47                     ",
"                 27   7 331**.*....*.17                         ",
"                    27 7727711111111111$+s                      ",
"                            %                                   ",
"                          2757                                  "
};
